<?xml version="1.0" encoding="UTF-8" standalone="no"?>
<!DOCTYPE svg PUBLIC "-//W3C//DTD SVG 1.1//EN" "http://www.w3.org/Graphics/SVG/1.1/DTD/svg11.dtd">
<svg width="100%" height="100%" viewBox="0 0 24 24" version="1.1" xmlns="http://www.w3.org/2000/svg" xmlns:xlink="http://www.w3.org/1999/xlink" xml:space="preserve" xmlns:serif="http://www.serif.com/" style="fill-rule:evenodd;clip-rule:evenodd;stroke-linecap:round;stroke-linejoin:round;">
    <g transform="matrix(0.977309,0.211819,-0.211819,0.977309,2.814122,-0.086329)">
        <path d="M2,10L2,13" style="fill:none;fill-rule:nonzero;stroke:rgb(0,157,11);stroke-width:2px;"/>
    </g>
    <g transform="matrix(0.977309,0.211819,-0.211819,0.977309,2.814122,-0.933605)">
        <path d="M6,6L6,17" style="fill:none;fill-rule:nonzero;stroke:rgb(0,157,11);stroke-width:2px;"/>
    </g>
    <g transform="matrix(0.977309,0.211819,-0.211819,0.977309,2.814122,-2.269536)">
        <path d="M10,3L10,21" style="fill:none;fill-rule:nonzero;stroke:rgb(0,157,11);stroke-width:2px;"/>
    </g>
    <g transform="matrix(0.977309,0.211819,-0.211819,0.977309,2.814122,-2.628158)">
        <path d="M14,8L14,15" style="fill:none;fill-rule:nonzero;stroke:rgb(0,157,11);stroke-width:2px;"/>
    </g>
    <g transform="matrix(0.977309,0.211819,-0.211819,0.977309,2.814122,-3.475434)">
        <path d="M18,5L18,18" style="fill:none;fill-rule:nonzero;stroke:rgb(0,157,11);stroke-width:2px;"/>
    </g>
    <g transform="matrix(0.977309,0.211819,-0.211819,0.977309,2.814122,-4.32271)">
        <path d="M22,10L22,13" style="fill:none;fill-rule:nonzero;stroke:rgb(0,157,11);stroke-width:2px;"/>
    </g>
</svg>
